<?xml version="1.0" encoding="utf-8"?>
<!-- Generator: Adobe Illustrator 17.0.0, SVG Export Plug-In . SVG Version: 6.00 Build 0)  -->
<!DOCTYPE svg PUBLIC "-//W3C//DTD SVG 1.1//EN" "http://www.w3.org/Graphics/SVG/1.1/DTD/svg11.dtd">
<svg version="1.1" id="圖層_1" xmlns="http://www.w3.org/2000/svg" xmlns:xlink="http://www.w3.org/1999/xlink" x="0px" y="0px"
	 width="500px" height="328.046px" viewBox="0 0 500 328.046" enable-background="new 0 0 500 328.046" xml:space="preserve">
<g>
	<path fill="#6A589F" d="M299.23,131.894c-2.512-2.515-2.655-6.461-0.144-8.979c2.511-2.515,6.457-2.375,8.969,0.14l15.283,15.275
		c2.511,2.518,2.655,6.461,0.143,8.979c-2.511,2.515-6.457,2.378-8.969-0.14L299.23,131.894"/>
	<path fill="#6A589F" d="M272.284,131.894c2.511-2.515,2.655-6.461,0.143-8.979c-2.511-2.515-6.457-2.375-8.969,0.14l-15.283,15.275
		c-2.511,2.518-2.655,6.461-0.143,8.979c2.511,2.515,6.457,2.378,8.969-0.14L272.284,131.894"/>
	<path fill="#6A589F" d="M188.665,115.891c-2.547-2.482-2.762-6.425-0.251-8.976c2.476-2.547,6.422-2.457,8.969,0.025l32.179,31.326
		c2.547,2.486,2.727,6.425,0.251,8.976c-2.476,2.547-6.458,2.461-9.005-0.022L188.665,115.891"/>
	<path fill="#6A589F" d="M201.328,43.779c-2.511-2.544-2.583-6.493-0.036-8.979c2.511-2.49,6.457-2.303,8.969,0.24l14.995,15.333
		c2.476,2.544,2.583,6.49,0.036,8.976c-2.547,2.49-6.493,2.31-8.969-0.237L201.328,43.779"/>
	<path fill="#6A589F" d="M210.078,14.599L184.5,40.64c-2.511,2.515-6.458,2.655-8.969,0.14c-2.511-2.518-2.368-6.461,0.143-8.976
		L205.665,1.82c2.511-2.518,6.458-2.378,8.969,0.14l29.848,29.844c2.511,2.515,2.655,6.457,0.143,8.976
		c-2.511,2.515-6.457,2.375-8.969-0.14L210.078,14.599"/>
	<path fill="#6A589F" d="M227.947,79.406l-17.292,29.076c-1.758,3.082-0.897,6.927,2.188,8.707c3.085,1.779,6.888,0.628,8.646-2.454
		l22.063-38.099c1.758-3.078,0.861-6.927-2.224-8.707c-0.969-0.567-2.009-0.836-3.05-0.84h-53.31c-3.552,0-6.457,2.687-6.457,6.246
		c0,3.562,2.906,6.253,6.457,6.253L227.947,79.406"/>
	<path fill="#6A589F" d="M305.58,55.306h-39.642V42.38h39.642V55.306z M305.58,80.099h-39.642V67.09h39.642V80.099z M305.58,105.361
		h-39.642V91.883h39.642V105.361z M320.898,1.307h-70.243c-3.587,0-6.457,2.687-6.457,6.249c0,3.559,2.87,6.249,6.457,6.249h30.207
		l-3.91,16.075H259.48c-3.552,0-6.421,2.691-6.421,6.249v75.48c0,3.559,2.87,6.249,6.421,6.249h52.556
		c3.552,0,6.422-2.691,6.422-6.249v-75.48c0-3.559-2.87-6.249-6.422-6.249h-21.847l3.946-16.075h26.763
		c3.552,0,6.421-2.691,6.421-6.249C327.319,3.994,324.45,1.307,320.898,1.307z"/>
	<path fill="#6A589F" d="M418.297,67.091h27.552v12.291h-27.552V67.091z M377.867,13.806H473.4v13.478h-95.534V13.806z
		 M494.316,133.329c-10.942-4.563-22.099-10.956-32.359-18.429l9.471-8.958c2.511-2.518,2.655-6.461,0.143-8.979
		c-2.511-2.515-6.457-2.375-8.969,0.14l-10.26,10.235c-5.776-4.9-11.085-10.106-15.713-15.455h55.103
		c3.587,0,6.458-2.694,6.458-6.249c0-3.562-2.87-6.253-6.458-6.253h-33.004V67.091h14.529c3.552,0,6.458-2.335,6.458-5.894
		c0-3.559-2.906-5.891-6.458-5.891h-14.529v-5.812c0-3.559-2.87-6.447-6.422-6.447s-6.457,2.888-6.457,6.447v5.812h-27.552v-5.812
		c0-3.559-2.87-6.447-6.422-6.447c-3.587,0-6.457,2.888-6.457,6.447v5.812h-14.493c-3.587,0-6.458,2.332-6.458,5.891
		c0,3.559,2.87,5.894,6.458,5.894h14.493v12.291h-27.588c0.036-1.022,0.036-2.052,0.036-3.092V39.783h101.992
		c3.552,0,6.457-2.691,6.457-6.249V7.557c0-3.562-2.906-6.249-6.457-6.249H371.445c-3.552,0-6.422,2.687-6.422,6.249v68.732
		c0,27.046-4.341,46.54-14.063,63.207c-1.758,3.067-0.717,7.006,2.332,8.793c3.085,1.783,6.995,0.743,8.789-2.325
		c8.897-15.265,13.776-32.355,15.283-54.081h15.175v48.108c0,0.52,0.036,1.055,0.18,1.593c0.825,3.458,4.269,5.392,7.749,4.552
		l31.569-7.674c3.444-0.84,5.633-4.14,4.772-7.595c-0.825-3.462-4.269-5.392-7.749-4.552l-23.821,6.099l0.18-40.531h15.031
		c14.207,19.301,45.848,43.315,69.094,52.976c3.193,1.324,6.816-0.183,8.144-3.369C499.015,138.309,497.508,134.653,494.316,133.329
		z"/>
	<path fill="#6A589F" d="M142.566,178.94c-6.924,0-12.521,5.614-12.521,12.531v124.04c0,6.92,5.597,12.535,12.521,12.535
		c6.924,0,12.52-5.614,12.52-12.535v-124.04C155.086,184.554,149.489,178.94,142.566,178.94"/>
	<path fill="#6A589F" d="M192.503,328.031c6.924,0,12.52-5.607,12.52-12.524v-81.909l-25.076-25.442v107.351
		C179.947,322.424,185.543,328.031,192.503,328.031"/>
	<path fill="#C35580" d="M299.908,283.145l22.386,22.741c1.148,1.166,2.081,2.558,2.727,4.151
		c2.726,6.669-0.466,14.289-7.139,17.022c-6.673,2.734-14.278-0.459-17.004-7.125c-0.646-1.596-0.968-3.239-0.968-4.865V283.145"/>
	<path fill="#C35580" d="M200.933,182.693c-4.915-4.99-12.951-5.051-17.937-0.136c-4.987,4.915-5.058,12.944-0.144,17.934
		l109.74,111.387l0.251-35.885L200.933,182.693"/>
	<path fill="#C35580" d="M299.908,191.618c0-7.003,5.668-12.678,12.663-12.678c6.996,0,12.664,5.675,12.7,12.678v106.877
		l-25.363-25.629V191.618"/>
	<path fill="#6A589F" d="M12.521,178.94C5.597,178.94,0,184.554,0,191.471v122.917c0,6.917,5.597,12.531,12.521,12.531h87.39
		c6.924,0,12.556-5.234,12.556-12.151c0-6.92-5.633-12.151-12.556-12.151H25.005l0.036-111.146
		C25.041,184.554,19.444,178.94,12.521,178.94"/>
	<path fill="#6A589F" d="M496.181,307.002l-54.171-54.185l52.162-52.929c4.879-4.926,5.094-12.599,0.144-17.457
		c-4.915-4.857-12.592-4.531-17.435,0.395L374.602,287.224l0.538-95.735c0-6.917-5.596-12.531-12.52-12.531
		c-6.924,0-12.52,5.614-12.52,12.531v124.008c0,6.92,5.597,12.535,12.52,12.535c3.48,0,6.601-1.403,8.861-3.67l53.919-54.687
		l53.633,54.511c4.879,4.89,12.556,5.159,17.435,0.269C501.347,319.561,501.096,311.895,496.181,307.002"/>
</g>
</svg>
